<svg xmlns="http://www.w3.org/2000/svg" version="1.1" xmlns:xlink="http://www.w3.org/1999/xlink" xmlns:svgjs="http://svgjs.dev/svgjs" width="1000" height="1000" viewBox="0 0 1000 1000"><rect width="1000" height="1000" fill="#ffffff"></rect><g transform="matrix(0.7,0,0,0.7,150.00040338463458,106.25)"><svg viewBox="0 0 320 360" data-background-color="#ffffff" preserveAspectRatio="xMidYMid meet" height="1125" width="1000" xmlns="http://www.w3.org/2000/svg" xmlns:xlink="http://www.w3.org/1999/xlink"><g id="tight-bounds" transform="matrix(1,0,0,1,0.00018440440442191175,0)"><svg viewBox="0 0 320 360" height="360" width="320"><g><svg></svg></g><g><svg viewBox="0 0 320 360" height="360" width="320"><g><path xmlns="http://www.w3.org/2000/svg" d="M294.684 112.125c-8.775-10.699-25.381-16.201-43-22.006-7.56-2.498-15.357-5.097-22.985-8.235-7.695-3.173-15.256-7.257-22.613-11.172-14.952-8.033-30.41-16.336-46.105-16.336-15.661 0-31.119 8.303-46.071 16.336-7.358 3.949-14.952 8.033-22.648 11.205-7.594 3.139-15.425 5.704-22.985 8.236-17.618 5.839-34.224 11.341-42.999 22.006-11.712 14.277-11.442 35.439-11.172 57.817 0.034 3.375 0.068 6.717 0.067 10.024 0 3.308-0.034 6.649-0.101 10.024-0.27 22.411-0.54 43.54 11.172 57.851 8.775 10.666 25.381 16.167 42.966 22.006 7.56 2.498 15.357 5.097 23.019 8.235 7.695 3.173 15.256 7.223 22.579 11.172 14.986 8.067 30.444 16.37 46.105 16.37 15.695 0 31.153-8.303 46.105-16.336 7.358-3.949 14.918-8.033 22.614-11.172 7.594-3.139 15.357-5.704 22.884-8.202 17.72-5.873 34.326-11.374 43.101-22.039 11.712-14.277 11.442-35.439 11.171-57.817-0.034-3.409-0.101-6.75-0.101-10.058 0-3.308 0.034-6.649 0.101-9.991 0.371-22.479 0.641-43.641-11.104-57.918zM305.552 103.215c-15.728-19.171-45.801-23.727-71.486-34.326-22.985-9.45-46.375-28.588-74.051-28.587-27.676 0-51.066 19.137-74.052 28.587-25.719 10.598-55.758 15.155-71.486 34.326-17.078 20.791-14.311 50.121-14.311 76.785 0 26.63-2.768 55.994 14.277 76.785 15.728 19.171 45.801 23.727 71.487 34.326 22.985 9.484 46.375 28.588 74.051 28.587 27.676 0 51.066-19.103 74.051-28.587 25.719-10.598 55.758-15.155 71.486-34.326 17.045-20.791 14.277-50.121 14.277-76.785 0.068-26.664 2.835-55.994-14.243-76.785zM309.872 189.923c0.304 23.221 0.574 45.059-12.083 60.483-9.518 11.577-26.664 17.281-44.822 23.289-7.56 2.498-15.29 5.063-22.715 8.134-7.493 3.071-14.952 7.088-22.175 10.969-15.458 8.303-31.355 16.842-48.062 16.842-16.707 0-32.604-8.539-47.995-16.808-7.257-3.915-14.75-7.932-22.243-11.003-7.527-3.105-15.256-5.67-22.748-8.134-18.192-6.008-35.338-11.712-44.823-23.289-12.623-15.391-12.353-37.262-12.083-60.415 0.034-3.375 0.101-6.683 0.101-9.991 0-3.308-0.034-6.615-0.067-9.991-0.304-23.154-0.574-45.025 12.083-60.415 9.518-11.577 26.664-17.247 44.822-23.289 7.527-2.498 15.256-5.063 22.749-8.134 7.493-3.105 14.986-7.122 22.242-11.003 15.391-8.269 31.322-16.842 47.995-16.842 16.673 0 32.604 8.539 47.995 16.808 7.257 3.915 14.75 7.932 22.243 11.003 7.493 3.105 15.256 5.637 22.715 8.134 18.158 6.008 35.338 11.712 44.822 23.289 12.657 15.425 12.387 37.262 12.083 60.416-0.034 3.409-0.101 6.717-0.101 9.99 0 3.308 0.034 6.615 0.067 9.957z" fill="#000000" fill-rule="nonzero" stroke="none" stroke-width="1" stroke-linecap="butt" stroke-linejoin="miter" stroke-miterlimit="10" stroke-dasharray="" stroke-dashoffset="0" font-family="none" font-weight="none" font-size="none" text-anchor="none" style="mix-blend-mode: normal" data-fill-palette-color="tertiary"></path></g><g transform="matrix(1,0,0,1,114.70530754751775,108)"><svg viewBox="0 0 90.58938490496449 144" height="144" width="90.58938490496449"><g><svg viewBox="0 0 90.58938490496449 144" height="144" width="90.58938490496449"><g><svg viewBox="0 0 192 305.20132164496937" height="144" width="90.58938490496449"><g transform="matrix(1,0,0,1,0,139.77790834382273)"><svg viewBox="0 0 192 165.42341330114664" height="165.42341330114664" width="192"><g id="textblocktransform"><svg viewBox="0 0 192 165.42341330114664" height="165.42341330114664" width="192" id="textblock"><g><svg viewBox="0 0 192 89.2214846107423" height="89.2214846107423" width="192"><g transform="matrix(1,0,0,1,0,0)"><svg width="192" viewBox="3.1500000953674316 -38.150001525878906 82.83999633789062 38.5" height="89.2214846107423" data-palette-color="#ff9a8d"><path d="M13.15 0.35L13.15 0.35Q10.8 0.35 8.95-0.8 7.1-1.95 6.3-3.5L6.3-3.5 6.3-1.3Q6.3-0.8 5.85-0.4 5.4 0 4.75 0L4.75 0Q4.1 0 3.63-0.4 3.15-0.8 3.15-1.3L3.15-1.3 3.15-36.95Q3.15-37.5 3.63-37.83 4.1-38.15 4.75-38.15L4.75-38.15Q5.45-38.15 5.93-37.83 6.4-37.5 6.4-36.95L6.4-36.95 6.4-20.15Q7.25-21.6 8.93-22.78 10.6-23.95 13.05-23.95L13.05-23.95Q15.5-23.95 17.53-22.68 19.55-21.4 20.78-19.3 22-17.2 22-14.6L22-14.6 22-9.15Q22-6.7 20.78-4.5 19.55-2.3 17.55-0.98 15.55 0.35 13.15 0.35ZM12.55-2.65L12.55-2.65Q14.25-2.65 15.65-3.58 17.05-4.5 17.9-6 18.75-7.5 18.75-9.15L18.75-9.15 18.75-14.6Q18.75-16.2 17.9-17.65 17.05-19.1 15.65-20.03 14.25-20.95 12.5-20.95L12.5-20.95Q11-20.95 9.6-20.18 8.2-19.4 7.3-18 6.4-16.6 6.4-14.6L6.4-14.6 6.4-7.6Q6.4-6.85 7.23-5.68 8.05-4.5 9.45-3.58 10.85-2.65 12.55-2.65ZM37.2 0.35L37.2 0.35Q34.05 0.35 31.62-0.85 29.2-2.05 27.82-4.17 26.45-6.3 26.45-9.15L26.45-9.15 26.45-14.75Q26.45-17.25 27.75-19.35 29.05-21.45 31.22-22.7 33.4-23.95 36-23.95L36-23.95Q38.5-23.95 40.62-22.78 42.75-21.6 44.05-19.55 45.35-17.5 45.35-14.85L45.35-14.85Q45.35-12.9 44.7-12.08 44.05-11.25 43.07-11.05 42.1-10.85 41-10.85L41-10.85 29.7-10.85 29.7-9Q29.7-6 31.85-4.25 34-2.5 37.3-2.5L37.3-2.5Q39.3-2.5 40.4-3 41.5-3.5 42.12-4 42.75-4.5 43.3-4.5L43.3-4.5Q43.7-4.5 44.02-4.23 44.35-3.95 44.52-3.6 44.7-3.25 44.7-2.95L44.7-2.95Q44.7-2.4 43.8-1.6 42.9-0.8 41.2-0.23 39.5 0.35 37.2 0.35ZM29.7-15.15L29.7-13.25 39.7-13.25Q41.2-13.25 41.7-13.58 42.2-13.9 42.2-14.95L42.2-14.95Q42.2-16.55 41.42-18 40.65-19.45 39.22-20.35 37.8-21.25 35.95-21.25L35.95-21.25Q34.25-21.25 32.82-20.43 31.4-19.6 30.55-18.23 29.7-16.85 29.7-15.15L29.7-15.15ZM60.1 0.35L60.1 0.35Q56.95 0.35 54.52-0.85 52.1-2.05 50.72-4.17 49.35-6.3 49.35-9.15L49.35-9.15 49.35-14.75Q49.35-17.25 50.65-19.35 51.95-21.45 54.12-22.7 56.3-23.95 58.9-23.95L58.9-23.95Q61.4-23.95 63.52-22.78 65.65-21.6 66.95-19.55 68.25-17.5 68.25-14.85L68.25-14.85Q68.25-12.9 67.59-12.08 66.95-11.25 65.97-11.05 65-10.85 63.9-10.85L63.9-10.85 52.6-10.85 52.6-9Q52.6-6 54.75-4.25 56.9-2.5 60.2-2.5L60.2-2.5Q62.2-2.5 63.3-3 64.4-3.5 65.02-4 65.65-4.5 66.2-4.5L66.2-4.5Q66.59-4.5 66.92-4.23 67.25-3.95 67.42-3.6 67.59-3.25 67.59-2.95L67.59-2.95Q67.59-2.4 66.7-1.6 65.8-0.8 64.09-0.23 62.4 0.35 60.1 0.35ZM52.6-15.15L52.6-13.25 62.6-13.25Q64.09-13.25 64.59-13.58 65.09-13.9 65.09-14.95L65.09-14.95Q65.09-16.55 64.32-18 63.55-19.45 62.12-20.35 60.7-21.25 58.85-21.25L58.85-21.25Q57.15-21.25 55.72-20.43 54.3-19.6 53.45-18.23 52.6-16.85 52.6-15.15L52.6-15.15ZM74.69 0L74.69 0Q74.04 0 73.57-0.4 73.09-0.8 73.09-1.3L73.09-1.3 73.09-22.45Q73.09-23 73.57-23.33 74.04-23.65 74.69-23.65L74.69-23.65Q75.34-23.65 75.79-23.33 76.24-23 76.24-22.45L76.24-22.45 76.24-20Q76.79-21 77.74-21.9 78.69-22.8 79.99-23.38 81.29-23.95 82.94-23.95L82.94-23.95 84.69-23.95Q85.24-23.95 85.62-23.53 85.99-23.1 85.99-22.45L85.99-22.45Q85.99-21.85 85.62-21.4 85.24-20.95 84.69-20.95L84.69-20.95 82.94-20.95Q81.29-20.95 79.77-20.08 78.24-19.2 77.29-17.57 76.34-15.95 76.34-13.65L76.34-13.65 76.34-1.3Q76.34-0.8 75.87-0.4 75.39 0 74.69 0Z" opacity="1" transform="matrix(1,0,0,1,0,0)" fill="#ffffff" class="undefined-text-0" data-fill-palette-color="quaternary" id="text-0"></path></svg></g></svg></g><g transform="matrix(1,0,0,1,0,110.2845358117079)"><svg viewBox="0 0 192 55.138877489438734" height="55.138877489438734" width="192"><g transform="matrix(1,0,0,1,0,0)"><svg width="192" viewBox="0.05000000074505806 -37.95000076293945 132.14999389648438 37.95000076293945" height="55.138877489438734" data-palette-color="#ff9a8d"><path d="M32.3 0L26.9 0Q26.65-0.55 26.2-1.6 25.75-2.65 25.18-4.03 24.6-5.4 23.93-7.03 23.25-8.65 22.55-10.4L22.55-10.4 9.75-10.4 5.45 0 0.05 0 16.2-37.95Q16.5-37.25 17.28-35.4 18.05-33.55 19.13-30.98 20.2-28.4 21.53-25.28 22.85-22.15 24.23-18.95 25.6-15.75 26.93-12.65 28.25-9.55 29.35-6.95 30.45-4.35 31.23-2.53 32-0.7 32.3 0L32.3 0ZM15.65-24.7L11.65-15 20.7-15Q20-16.65 19.38-18.18 18.75-19.7 18.23-20.98 17.7-22.25 17.3-23.2 16.9-24.15 16.7-24.7L16.7-24.7Q16.65-24.8 16.48-25.4 16.3-26 16.2-26.5L16.2-26.5Q16.1-26 15.9-25.4 15.7-24.8 15.65-24.7L15.65-24.7ZM72.85-31.15L72.85-18.1 77.8-18.1Q79.8-18.1 81.15-18.8 82.5-19.5 83.27-20.5 84.05-21.5 84.37-22.65 84.7-23.8 84.7-24.7L84.7-24.7Q84.7-25.65 84.37-26.78 84.05-27.9 83.25-28.88 82.45-29.85 81.12-30.5 79.8-31.15 77.85-31.15L77.85-31.15 72.85-31.15ZM72.85 0L67.35 0 67.35-36.25 77.25-36.25Q80.1-36.25 82.47-35.5 84.85-34.75 86.57-33.27 88.3-31.8 89.25-29.68 90.2-27.55 90.2-24.8L90.2-24.8Q90.2-22.65 89.55-20.53 88.9-18.4 87.45-16.73 86-15.05 83.65-14 81.3-12.95 77.95-12.95L77.95-12.95 72.85-12.95 72.85 0ZM126.75 0L126.75-36.25 132.2-36.25 132.2 0 126.75 0Z" opacity="1" transform="matrix(1,0,0,1,0,0)" fill="#ffffff" class="undefined-text-1" data-fill-palette-color="quaternary" id="text-1"></path></svg></g></svg></g></svg></g></svg></g><g transform="matrix(1,0,0,1,36.672,0)"><svg viewBox="0 0 118.656 118.71485714285714" height="118.71485714285714" width="118.656"><g><svg xmlns:dc="http://purl.org/dc/elements/1.1/" xmlns:cc="http://creativecommons.org/ns#" xmlns:rdf="http://www.w3.org/1999/02/22-rdf-syntax-ns#" xmlns:svg="http://www.w3.org/2000/svg" xmlns="http://www.w3.org/2000/svg" xmlns:sodipodi="http://sodipodi.sourceforge.net/DTD/sodipodi-0.dtd" xmlns:inkscape="http://www.inkscape.org/namespaces/inkscape" preserveAspectRatio="xMidYMid" viewBox="0 0 63 63.03125" version="1.1" x="0" y="0" height="118.71485714285714" width="118.656" class="icon-icon-0" data-fill-palette-color="quaternary" id="icon-0"><path d="M9.5 0C4.253 0 0 4.25 0 9.5L0 53.531C0 58.781 4.253 63.031 9.5 63.031L53.5 63.031C58.747 63.031 63 58.781 63 53.531L63 9.5C63 4.25 58.747 0 53.5 0L9.5 0zM10 3L17 3 17 60.031 10 60.031 10 3zM20 3L35 3 35 60.031 20 60.031 20 3zM38 3L53.5 3C57.09 3 60 5.908 60 9.5L60 53.531C60 57.123 57.09 60.031 53.5 60.031L38 60.031 38 3zM6.969 3.5C6.978 3.496 6.991 3.504 7 3.5L7 59.531C4.653 58.55 3 56.236 3 53.531L3 9.5C3 6.806 4.636 4.487 6.969 3.5z" fill="#ffffff" fill-rule="evenodd" data-fill-palette-color="quaternary"></path></svg></g></svg></g><g></g></svg></g></svg></g></svg></g></svg></g><defs></defs></svg><rect width="320" height="360" fill="none" stroke="none" visibility="hidden"></rect></g></svg></g></svg>